<svg id="Capa_1" enable-background="new 0 0 512 512" height="512" viewBox="0 0 512 512" width="512" xmlns="http://www.w3.org/2000/svg" xmlns:xlink="http://www.w3.org/1999/xlink"><linearGradient id="SVGID_1_" gradientUnits="userSpaceOnUse" x1="256" x2="256" y1="512" y2="0"><stop offset="0" stop-color="#ffe59a"/><stop offset="1" stop-color="#ffffd5"/></linearGradient><linearGradient id="SVGID_2_" gradientUnits="userSpaceOnUse" x1="256" x2="256" y1="407" y2="105"><stop offset="0" stop-color="#ffde00"/><stop offset="1" stop-color="#fd5900"/></linearGradient><g><circle cx="256" cy="256" fill="url(#SVGID_1_)" r="256"/></g><g><g><path d="m398.118 371.471h-26.647v-8.882c0-4.909-3.973-8.882-8.882-8.882h-213.177c-4.909 0-8.882 3.973-8.882 8.882v8.882h-26.647c-4.91 0-8.882 3.973-8.882 8.882v17.765c0 4.91 3.973 8.882 8.882 8.882h284.235c4.91 0 8.882-3.973 8.882-8.882v-17.765c0-4.91-3.973-8.882-8.882-8.882zm-26.647-115.471v-26.647h-230.942v26.647c0 4.91 3.973 8.882 8.882 8.882h213.177c4.91 0 8.883-3.972 8.883-8.882zm-177.648 79.941v-53.294h-35.529v53.294zm79.942 0v-53.294h-35.529v53.294zm79.941 0v-53.294h-35.529v53.294zm-122.757-168.765h50.102l-25.051-12.525zm171.141 9.82-142.118-71.059c-2.498-1.249-5.447-1.249-7.945 0l-142.117 71.059c-3.01 1.509-4.91 4.58-4.91 7.946v17.765c0 4.91 3.973 8.882 8.882 8.882h284.235c4.91 0 8.882-3.973 8.882-8.882v-17.765c.001-3.366-1.899-6.437-4.909-7.946zm-74.771 1.101c-.954 4.008-4.528 6.844-8.648 6.844h-125.342c-4.12 0-7.694-2.836-8.648-6.844-.946-4.007.989-8.136 4.676-9.984l62.671-31.34c2.498-1.249 5.447-1.249 7.945 0l62.671 31.34c3.686 1.848 5.621 5.977 4.675 9.984z" fill="url(#SVGID_2_)"/></g></g></svg>