<svg id="Capa_1" enable-background="new 0 0 512 512" height="32" viewBox="0 0 512 512" width="32" xmlns="http://www.w3.org/2000/svg" xmlns:xlink="http://www.w3.org/1999/xlink"><linearGradient id="SVGID_1_" gradientUnits="userSpaceOnUse" x1="256" x2="256" y1="512" y2="0"><stop offset="0" stop-color="#ffe59a"/><stop offset="1" stop-color="#ffffd5"/></linearGradient><linearGradient id="SVGID_2_" gradientUnits="userSpaceOnUse" x1="256" x2="256" y1="407" y2="105"><stop offset="0" stop-color="#ffde00"/><stop offset="1" stop-color="#fd5900"/></linearGradient><g><g><circle cx="256" cy="256" fill="url(#SVGID_1_)" r="256"/></g><g><g><path d="m158.294 401.795v-48.09h-48.09zm97.706-190.207h-142.118c-4.91 0-8.882 3.973-8.882 8.882v115.471h62.177c4.909 0 8.882 3.973 8.882 8.882v62.177h79.941c4.91 0 8.882-3.973 8.882-8.882v-177.647c0-4.91-3.972-8.883-8.882-8.883zm71.059-53.294h-142.118c-4.909 0-8.882 3.973-8.882 8.882v26.647h79.941c14.694 0 26.647 11.953 26.647 26.647v133.235h44.412c4.909 0 8.882-3.973 8.882-8.882v-177.647c0-4.909-3.973-8.882-8.882-8.882zm71.059-53.294h-142.118c-4.91 0-8.882 3.973-8.882 8.882v26.647h79.941c14.694 0 26.647 11.953 26.647 26.647v133.235h44.412c4.91 0 8.882-3.973 8.882-8.882v-177.647c0-4.909-3.973-8.882-8.882-8.882z" fill="url(#SVGID_2_)"/></g></g></g></svg>